<svg width="65" height="65" viewBox="0 0 65 65" fill="none" xmlns="http://www.w3.org/2000/svg">
<path d="M24.1877 50.8155V34.497H19.1146V50.8155H24.1877ZM24.1877 50.8155H40.0832M24.1877 50.8155L24.1877 31.6223H40.0832L40.0832 50.8155M40.0832 50.8155H45.1564V34.497H40.0832V50.8155ZM8.12311 37.3718H19.4529M19.4529 41.9376H8.12311M19.4529 46.0806H8.12311M19.4529 50.3927H8.12311M44.4801 37.3718H56.4019M44.4801 41.9376H56.4019M44.4801 46.0806H56.4019M44.4801 50.3927H56.4019M24.1032 36.4417H39.9989M7.27738 30.8613V34.4125M21.6511 30.1849V34.4125M42.2818 30.1849V34.4125M56.9092 30.8613V34.4125M12.824 39.9387V41.6707M16.0729 39.9387V41.6707M12.824 44.605L12.8246 45.9486M16.0729 44.605L16.0734 45.9486M12.824 48.9123L12.824 50.122M16.0729 48.9123L16.0729 50.122M47.8702 39.8884V41.6838M51.9382 39.8884V41.6838M47.8702 44.4221V45.8365M51.9382 44.4221V45.8365M47.8702 48.8224V50.2635M51.9382 48.8224V50.2635M28.5969 21.9488L27.0769 20.5554C26.617 20.1339 26.3552 19.5387 26.3552 18.9149V18.1045C26.3552 17.4253 26.6654 16.7833 27.1974 16.3611L30.7227 13.5638C31.5228 12.929 32.6522 12.9202 33.4621 13.5425L37.1303 16.3612C37.6785 16.7825 37.9998 17.4346 37.9998 18.126V18.972C37.9998 19.5623 37.7654 20.1284 37.348 20.5457L35.9449 21.9488H28.5969ZM4.99451 34.497H10.0677V50.8155H4.99451V34.497ZM54.7107 34.497H59.7839V50.8155H54.7107V34.497ZM30.0218 50.3927V39.401H34.5875V50.3927H30.0218ZM27.0401 26.1833H37.5018V31.6223H27.0401V26.1833ZM25.5455 21.762H38.8095V26.1833H25.5455V21.762Z" stroke="#2B2B2B" stroke-width="1.5" stroke-linecap="round" stroke-linejoin="round"/>
</svg>
