<svg width="65" height="65" viewBox="0 0 65 65" fill="none" xmlns="http://www.w3.org/2000/svg">
<path d="M50.4964 54.9562H13.87C13.4673 54.9562 13.1406 54.5786 13.1406 54.113C13.1406 53.6475 13.4673 53.2698 13.87 53.2698H50.492C50.8947 53.2698 51.2213 53.6475 51.2213 54.113C51.2213 54.5786 50.8947 54.9562 50.492 54.9562H50.4964Z" fill="#2B2B2B"/>
<path d="M36.734 54.9562C36.2685 54.9562 35.8908 54.5786 35.8908 54.113V34.0474C35.8908 31.9524 34.101 30.3126 31.8198 30.3126H31.7525C29.4765 30.3126 27.6246 31.9886 27.6246 34.0474V54.113C27.6246 54.5786 27.247 54.9562 26.7814 54.9562C26.3159 54.9562 25.9382 54.5786 25.9382 54.113V34.0474C25.9382 31.0575 28.5454 28.6263 31.7525 28.6263H31.8198C35.0528 28.6263 37.5824 31.0058 37.5824 34.0474V54.113C37.5824 54.5786 37.2048 54.9562 36.7392 54.9562H36.734Z" fill="#2B2B2B"/>
<path d="M25.6747 51.9508H14.4599C13.9943 51.9508 13.6167 51.5731 13.6167 51.1076C13.6167 50.642 13.9943 50.2644 14.4599 50.2644H25.6747C26.1402 50.2644 26.5179 50.642 26.5179 51.1076C26.5179 51.5731 26.1402 51.9508 25.6747 51.9508Z" fill="#2B2B2B"/>
<path d="M49.211 51.9508H37.8359C37.3703 51.9508 36.9927 51.5731 36.9927 51.1076C36.9927 50.642 37.3703 50.2644 37.8359 50.2644H49.211C49.6766 50.2644 50.0542 50.642 50.0542 51.1076C50.0542 51.5731 49.6766 51.9508 49.211 51.9508Z" fill="#2B2B2B"/>
<path d="M28.3592 42.3137H13.9838C13.5182 42.3137 13.1406 41.9361 13.1406 41.4705C13.1406 41.005 13.5182 40.6273 13.9838 40.6273H28.3592C28.8248 40.6273 29.2024 41.005 29.2024 41.4705C29.2024 41.9361 28.8248 42.3137 28.3592 42.3137Z" fill="#2B2B2B"/>
<path d="M28.3592 34.5751H13.9838C13.5182 34.5751 13.1406 34.1975 13.1406 33.7319C13.1406 33.2663 13.5182 32.8887 13.9838 32.8887H28.3592C28.8248 32.8887 29.2024 33.2663 29.2024 33.7319C29.2024 34.1975 28.8248 34.5751 28.3592 34.5751Z" fill="#2B2B2B"/>
<path d="M49.8474 42.3137H35.6271C35.1616 42.3137 34.7839 41.9361 34.7839 41.4705C34.7839 41.005 35.1616 40.6273 35.6271 40.6273H49.8474C50.3129 40.6273 50.6905 41.005 50.6905 41.4705C50.6905 41.9361 50.3129 42.3137 49.8474 42.3137Z" fill="#2B2B2B"/>
<path d="M49.8474 34.5751H35.6271C35.1616 34.5751 34.7839 34.1975 34.7839 33.7319C34.7839 33.2663 35.1616 32.8887 35.6271 32.8887H49.8474C50.3129 32.8887 50.6905 33.2663 50.6905 33.7319C50.6905 34.1975 50.3129 34.5751 49.8474 34.5751Z" fill="#2B2B2B"/>
<path d="M15.0908 54.3199C14.6252 54.3199 14.2476 53.9423 14.2476 53.4768V25.5587L13.4096 23.6396C13.2958 23.381 13.3217 23.0758 13.4769 22.8378C13.6321 22.5999 13.901 22.455 14.1855 22.455H50.794C51.2595 22.455 51.6372 22.8326 51.6372 23.2982C51.6372 23.7638 51.2595 24.1414 50.794 24.1414H15.4736L15.8667 25.0363C15.9133 25.1449 15.9392 25.2587 15.9392 25.3725V53.4664C15.9392 53.932 15.5615 54.3096 15.096 54.3096L15.0908 54.3199Z" fill="#2B2B2B"/>
<path d="M48.8957 54.3199C48.4301 54.3199 48.0525 53.9423 48.0525 53.4767V25.6777C48.0525 25.4967 48.1094 25.3208 48.218 25.1759L49.6975 23.1689C49.9716 22.7912 50.5044 22.7136 50.8769 22.9878C51.2545 23.262 51.3321 23.7948 51.0579 24.1672L49.744 25.9519V53.4716C49.744 53.9371 49.3664 54.3147 48.9008 54.3147L48.8957 54.3199Z" fill="#2B2B2B"/>
<path d="M20.9413 31.9162C19.8601 31.9162 18.9756 31.0368 18.9756 29.9557C18.9756 28.8746 19.855 27.9952 20.9413 27.9952C22.0276 27.9952 22.9018 28.8746 22.9018 29.9557C22.9018 31.0368 22.0224 31.9162 20.9413 31.9162ZM20.9413 29.6815C20.7913 29.6815 20.6671 29.8057 20.6671 29.9557C20.6671 30.1057 20.7913 30.2299 20.9413 30.2299C21.0913 30.2299 21.2154 30.1057 21.2154 29.9557C21.2154 29.8057 21.0913 29.6815 20.9413 29.6815Z" fill="#2B2B2B"/>
<path d="M42.5225 31.9162C41.4414 31.9162 40.562 31.0368 40.562 29.9557C40.562 28.8746 41.4414 27.9952 42.5225 27.9952C43.6037 27.9952 44.4882 28.8746 44.4882 29.9557C44.4882 31.0368 43.6088 31.9162 42.5225 31.9162ZM42.5225 29.6815C42.3725 29.6815 42.2484 29.8057 42.2484 29.9557C42.2484 30.1057 42.3725 30.2299 42.5225 30.2299C42.6725 30.2299 42.7967 30.1057 42.7967 29.9557C42.7967 29.8057 42.6725 29.6815 42.5225 29.6815Z" fill="#2B2B2B"/>
<path d="M47.1575 26.9916H16.5133C16.0478 26.9916 15.6702 26.614 15.6702 26.1484C15.6702 25.6829 16.0478 25.3053 16.5133 25.3053H47.1626C47.6282 25.3053 48.0058 25.6829 48.0058 26.1484C48.0058 26.614 47.6282 26.9916 47.1626 26.9916H47.1575Z" fill="#2B2B2B"/>
<path d="M17.7756 54.3199C17.31 54.3199 16.9324 53.9423 16.9324 53.4768V36.5718C16.9324 36.1062 17.31 35.7286 17.7756 35.7286C18.2411 35.7286 18.6187 36.1062 18.6187 36.5718V53.4768C18.6187 53.9423 18.2411 54.3199 17.7756 54.3199Z" fill="#2B2B2B"/>
<path d="M24.2521 54.3199C23.7866 54.3199 23.4089 53.9423 23.4089 53.4768V36.5718C23.4089 36.1062 23.7866 35.7286 24.2521 35.7286C24.7177 35.7286 25.0953 36.1062 25.0953 36.5718V53.4768C25.0953 53.9423 24.7177 54.3199 24.2521 54.3199Z" fill="#2B2B2B"/>
<path d="M39.5793 54.3199C39.1137 54.3199 38.7361 53.9423 38.7361 53.4768V36.5718C38.7361 36.1062 39.1137 35.7286 39.5793 35.7286C40.0448 35.7286 40.4224 36.1062 40.4224 36.5718V53.4768C40.4224 53.9423 40.0448 54.3199 39.5793 54.3199Z" fill="#2B2B2B"/>
<path d="M46.0558 54.3199C45.5903 54.3199 45.2126 53.9423 45.2126 53.4768V36.5718C45.2126 36.1062 45.5903 35.7286 46.0558 35.7286C46.5214 35.7286 46.899 36.1062 46.899 36.5718V53.4768C46.899 53.9423 46.5214 54.3199 46.0558 54.3199Z" fill="#2B2B2B"/>
<path d="M49.0558 23.1999C48.5903 23.1999 48.2127 22.8223 48.2127 22.3567V21.3066H30.5732C30.1076 21.3066 29.73 20.929 29.73 20.4635C29.73 19.9979 30.1076 19.6203 30.5732 19.6203H49.0558C49.5214 19.6203 49.899 19.9979 49.899 20.4635V22.3567C49.899 22.8223 49.5214 23.1999 49.0558 23.1999Z" fill="#2B2B2B"/>
<path d="M30.2486 21.3066H22.6461C21.5787 21.3066 20.7129 20.929 20.7129 20.4635C20.7129 19.9979 21.5787 19.6203 22.6461 19.6203H30.2486C31.3161 19.6203 32.1819 19.9979 32.1819 20.4635C32.1819 20.929 31.3161 21.3066 30.2486 21.3066Z" fill="#2B2B2B"/>
<path d="M15.2511 23.1999C14.7856 23.1999 14.408 22.8223 14.408 22.3567V20.4635C14.408 19.9979 14.7856 19.6203 15.2511 19.6203H21.7276C22.1931 19.6203 22.5708 19.9979 22.5708 20.4635C22.5708 20.929 22.1931 21.3066 21.7276 21.3066H16.0943V22.3567C16.0943 22.8223 15.7167 23.1999 15.2511 23.1999Z" fill="#2B2B2B"/>
<path d="M48.1092 20.0445C47.6436 20.0445 47.266 19.6668 47.266 19.2013V18.4667H41.6327C41.1672 18.4667 40.7896 18.0891 40.7896 17.6236C40.7896 17.158 41.1672 16.7804 41.6327 16.7804H48.1092C48.5747 16.7804 48.9523 17.158 48.9523 17.6236V19.2013C48.9523 19.6668 48.5747 20.0445 48.1092 20.0445Z" fill="#2B2B2B"/>
<path d="M42.2614 18.4616H31.7655C31.3 18.4616 30.9224 18.0839 30.9224 17.6184C30.9224 17.1528 31.3 16.7752 31.7655 16.7752H42.2614C42.7269 16.7752 43.1045 17.1528 43.1045 17.6184C43.1045 18.0839 42.7269 18.4616 42.2614 18.4616Z" fill="#2B2B2B"/>
<path d="M16.1979 20.5152C15.7324 20.5152 15.3547 20.1376 15.3547 19.672V17.6184C15.3547 17.1528 15.7324 16.7752 16.1979 16.7752H32.1511C32.6166 16.7752 32.9942 17.1528 32.9942 17.6184C32.9942 18.0839 32.6166 18.4616 32.1511 18.4616H17.0411V19.672C17.0411 20.1376 16.6635 20.5152 16.1979 20.5152Z" fill="#2B2B2B"/>
<path d="M46.0556 17.3546C45.59 17.3546 45.2124 16.977 45.2124 16.5114V14.0388H19.0946V16.5114C19.0946 16.977 18.7169 17.3546 18.2514 17.3546C17.7858 17.3546 17.4082 16.977 17.4082 16.5114V13.1956C17.4082 12.73 17.7858 12.3524 18.2514 12.3524H46.0556C46.5211 12.3524 46.8988 12.73 46.8988 13.1956V16.5114C46.8988 16.977 46.5211 17.3546 46.0556 17.3546Z" fill="#2B2B2B"/>
<path d="M37.6808 14.0388C37.2153 14.0388 36.8376 13.6611 36.8376 13.1956V12.1455H27.4696V12.4093C27.4696 12.8749 27.0919 13.2525 26.6264 13.2525C26.1608 13.2525 25.7832 12.8749 25.7832 12.4093V11.2971C25.7832 10.8316 26.1608 10.4539 26.6264 10.4539H37.686C38.1515 10.4539 38.5292 10.8316 38.5292 11.2971V13.1956C38.5292 13.6611 38.1515 14.0388 37.686 14.0388H37.6808Z" fill="#2B2B2B"/>
</svg>
