<svg width="65" height="65" viewBox="0 0 65 65" fill="none" xmlns="http://www.w3.org/2000/svg">
<path d="M58.4268 50.6251H6.35134C5.95227 50.6251 5.63403 50.3018 5.63403 49.9078C5.63403 49.5138 5.95733 49.1905 6.35134 49.1905H58.4268C58.8259 49.1905 59.1441 49.5138 59.1441 49.9078C59.1441 50.3018 58.8208 50.6251 58.4268 50.6251Z" fill="#2B2B2B"/>
<path d="M27.3402 42.8913H22.602C22.2029 42.8913 21.8846 42.5681 21.8846 42.174C21.8846 41.78 22.2079 41.4567 22.602 41.4567H26.6734C26.8805 40.0373 27.8807 36.9963 32.5988 35.5213C32.9776 35.4051 33.3818 35.6122 33.4979 35.9911C33.6141 36.3699 33.407 36.774 33.0282 36.8902C27.9363 38.4814 28.0575 42.1033 28.0626 42.1387C28.0727 42.3357 28.002 42.5276 27.8656 42.6691C27.7292 42.8105 27.5423 42.8913 27.3453 42.8913H27.3402Z" fill="#2B2B2B"/>
<path d="M42.1713 42.8914H37.4027C37.2057 42.8914 37.0137 42.8105 36.8824 42.664C36.746 42.5226 36.6753 42.3256 36.6854 42.1286C36.6904 41.977 36.8117 38.3198 32.1795 36.8852C31.8006 36.769 31.5885 36.3649 31.7046 35.986C31.8208 35.6072 32.2249 35.395 32.6038 35.5112C36.9582 36.8599 37.8826 39.9969 38.0745 41.4466H42.1713C42.5703 41.4466 42.8886 41.7699 42.8886 42.1639C42.8886 42.558 42.5653 42.8813 42.1713 42.8813V42.8914Z" fill="#2B2B2B"/>
<path d="M26.3904 50.1503C25.9913 50.1503 25.6731 49.827 25.6731 49.433V42.4872C25.6731 42.0882 25.9964 41.7699 26.3904 41.7699C26.7844 41.7699 27.1077 42.0932 27.1077 42.4872V49.433C27.1077 49.8321 26.7844 50.1503 26.3904 50.1503Z" fill="#2B2B2B"/>
<path d="M38.3826 50.1503C37.9835 50.1503 37.6653 49.827 37.6653 49.433V42.4872C37.6653 42.0882 37.9886 41.7699 38.3826 41.7699C38.7766 41.7699 39.0999 42.0932 39.0999 42.4872V49.433C39.0999 49.8321 38.7766 50.1503 38.3826 50.1503Z" fill="#2B2B2B"/>
<path d="M42.9594 50.3119C42.5603 50.3119 42.2421 49.9886 42.2421 49.5946V46.8769C42.0501 46.7456 41.9289 46.5284 41.9289 46.2809V21.1145H40.8378V46.2758C40.8378 46.5233 40.7115 46.7405 40.5246 46.8719V49.5896C40.5246 49.9886 40.2013 50.3069 39.8073 50.3069C39.4133 50.3069 39.09 49.9836 39.09 49.5896V46.2758C39.09 46.0283 39.2162 45.8111 39.4032 45.6797V20.3972C39.4032 19.9981 39.7264 19.6799 40.1205 19.6799H42.6462C43.0453 19.6799 43.3635 20.0032 43.3635 20.3972V45.6848C43.5555 45.8161 43.6767 46.0333 43.6767 46.2809V49.5946C43.6767 49.9937 43.3534 50.3119 42.9594 50.3119Z" fill="#2B2B2B"/>
<path d="M43.7473 20.9579H39.0141C38.615 20.9579 38.2968 20.6346 38.2968 20.2406C38.2968 19.8466 38.62 19.5233 39.0141 19.5233H43.7473C44.1463 19.5233 44.4646 19.8466 44.4646 20.2406C44.4646 20.6346 44.1413 20.9579 43.7473 20.9579Z" fill="#2B2B2B"/>
<path d="M39.8527 19.8668C39.8275 19.8668 39.7972 19.8668 39.7719 19.8668C39.3779 19.8213 39.095 19.4677 39.1354 19.0737C39.1455 18.9777 39.4183 16.7298 41.2318 16.1085C41.3783 16.058 41.5399 16.058 41.6915 16.1085C43.4241 16.6844 43.5908 19.0131 43.5959 19.1091C43.6211 19.5031 43.3231 19.8466 42.924 19.8718C42.53 19.892 42.1865 19.594 42.1613 19.2C42.1613 19.1899 42.0602 18.0129 41.4541 17.5835C40.7165 18.0432 40.565 19.2202 40.5599 19.2354C40.5195 19.6041 40.2063 19.8718 39.8477 19.8718L39.8527 19.8668Z" fill="#2B2B2B"/>
<path d="M41.3831 17.3259C40.984 17.3259 40.6658 17.0026 40.6658 16.6086V15.5023C40.6658 15.1033 40.9891 14.785 41.3831 14.785C41.7771 14.785 42.1004 15.1083 42.1004 15.5023V16.6086C42.1004 17.0077 41.7771 17.3259 41.3831 17.3259Z" fill="#2B2B2B"/>
<path d="M43.4342 29.3231H21.6574C21.2583 29.3231 20.9401 28.9998 20.9401 28.6058C20.9401 28.2118 21.2634 27.8885 21.6574 27.8885H43.4342C43.8333 27.8885 44.1515 28.2118 44.1515 28.6058C44.1515 28.9998 43.8282 29.3231 43.4342 29.3231Z" fill="#2B2B2B"/>
<path d="M43.7474 24.9031H21.4957C21.0967 24.9031 20.7784 24.5798 20.7784 24.1858C20.7784 23.7918 21.1017 23.4685 21.4957 23.4685H43.7474C44.1465 23.4685 44.4647 23.7918 44.4647 24.1858C44.4647 24.5798 44.1414 24.9031 43.7474 24.9031Z" fill="#2B2B2B"/>
<path d="M43.2775 33.4249H39.3323C38.9332 33.4249 38.615 33.1016 38.615 32.7076C38.615 32.3136 38.9383 31.9903 39.3323 31.9903H43.2775C43.6765 31.9903 43.9948 32.3136 43.9948 32.7076C43.9948 33.1016 43.6715 33.4249 43.2775 33.4249Z" fill="#2B2B2B"/>
<path d="M37.1198 33.4249H22.602C22.2029 33.4249 21.8846 33.1016 21.8846 32.7076C21.8846 32.3136 22.2079 31.9903 22.602 31.9903H37.1198C37.5189 31.9903 37.8372 32.3136 37.8372 32.7076C37.8372 33.1016 37.5139 33.4249 37.1198 33.4249Z" fill="#2B2B2B"/>
<path d="M37.9079 22.534H26.8604C26.4613 22.534 26.1431 22.2107 26.1431 21.8167C26.1431 21.4226 26.4664 21.0993 26.8604 21.0993H37.9079C38.307 21.0993 38.6252 21.4226 38.6252 21.8167C38.6252 22.2107 38.3019 22.534 37.9079 22.534Z" fill="#2B2B2B"/>
<path d="M54.8051 33.0006H54.8001C54.401 33.0006 54.0828 32.6722 54.0878 32.2782L54.1232 27.5854H44.5405C44.1415 27.5854 43.8232 27.2621 43.8232 26.8681C43.8232 26.4741 44.1465 26.1508 44.5405 26.1508H54.8455C55.0375 26.1508 55.2193 26.2266 55.3557 26.363C55.4921 26.4994 55.5679 26.6812 55.5628 26.8732L55.5224 32.2883C55.5224 32.6824 55.1991 33.0006 54.8051 33.0006Z" fill="#2B2B2B"/>
<path d="M56.0577 50.3119C55.6587 50.3119 55.3404 49.9886 55.3404 49.5946V48.7359H54.7949C54.3958 48.7359 54.0776 48.4126 54.0776 48.0186V34.4756C54.0776 34.3443 54.1129 34.2129 54.1836 34.1018L54.5928 33.435H45.6416C45.2426 33.435 44.9243 33.1117 44.9243 32.7177C44.9243 32.3237 45.2476 32.0004 45.6416 32.0004H55.8809C56.1436 32.0004 56.381 32.1418 56.5073 32.3692C56.6336 32.5965 56.6285 32.8743 56.4922 33.0966L55.5122 34.6878V47.3114H56.0577C56.4568 47.3114 56.775 47.6347 56.775 48.0287V49.6047C56.775 50.0038 56.4517 50.322 56.0577 50.322V50.3119Z" fill="#2B2B2B"/>
<path d="M43.4341 35.6324C43.2472 35.6324 43.0603 35.5566 42.924 35.4202C42.7926 35.2889 42.7118 35.102 42.7118 34.91C42.7118 34.7181 42.7876 34.5362 42.924 34.3998C43.0603 34.2685 43.2422 34.1877 43.4341 34.1877C43.6261 34.1877 43.808 34.2635 43.9443 34.3998C44.0807 34.5362 44.1565 34.7181 44.1565 34.91C44.1565 35.102 44.0807 35.2838 43.9443 35.4202C43.813 35.5566 43.6261 35.6324 43.4341 35.6324Z" fill="#2B2B2B"/>
<path d="M53.2187 35.6324H45.6415C45.2424 35.6324 44.9242 35.3091 44.9242 34.9151C44.9242 34.5211 45.2475 34.1978 45.6415 34.1978H53.2187C53.6178 34.1978 53.936 34.5211 53.936 34.9151C53.936 35.3091 53.6127 35.6324 53.2187 35.6324Z" fill="#2B2B2B"/>
<path d="M54.32 35.6324C54.1331 35.6324 53.9462 35.5566 53.8098 35.4202C53.6785 35.2889 53.5977 35.102 53.5977 34.91C53.5977 34.7181 53.6734 34.5362 53.8098 34.3998C53.9462 34.2685 54.1281 34.1877 54.32 34.1877C54.512 34.1877 54.6938 34.2635 54.8302 34.3998C54.9666 34.5362 55.0424 34.7181 55.0424 34.91C55.0424 35.102 54.9666 35.2838 54.8302 35.4202C54.6989 35.5566 54.512 35.6324 54.32 35.6324Z" fill="#2B2B2B"/>
<path d="M51.3246 48.4176C50.9255 48.4176 50.6072 48.0943 50.6072 47.7003V40.2393C50.6072 39.1078 49.1524 38.4006 48.7887 38.2996C48.4099 38.3905 46.9904 39.1482 46.9904 40.2393V47.7003C46.9904 48.0994 46.6671 48.4176 46.2731 48.4176C45.8791 48.4176 45.5558 48.0943 45.5558 47.7003V40.2393C45.5558 38.0975 48.0159 36.8599 48.7988 36.8599C49.5818 36.8599 52.0419 38.0975 52.0419 40.2393V47.7003C52.0419 48.0994 51.7186 48.4176 51.3246 48.4176Z" fill="#2B2B2B"/>
<path d="M56.0578 48.7308H45.0103C44.6112 48.7308 44.293 48.4075 44.293 48.0135C44.293 47.6195 44.6163 47.2962 45.0103 47.2962H56.0578C56.4569 47.2962 56.7751 47.6195 56.7751 48.0135C56.7751 48.4075 56.4518 48.7308 56.0578 48.7308Z" fill="#2B2B2B"/>
<path d="M49.7485 48.7308C49.3495 48.7308 49.0312 48.4075 49.0312 48.0135V45.3362C49.0312 45.2201 48.8696 45.0938 48.7231 45.0938C48.5766 45.0938 48.415 45.2201 48.415 45.3362V48.0135C48.415 48.4126 48.0917 48.7308 47.6977 48.7308C47.3036 48.7308 46.9803 48.4075 46.9803 48.0135V45.3362C46.9803 44.427 47.7785 43.6592 48.7231 43.6592C49.6677 43.6592 50.4658 44.427 50.4658 45.3362V48.0135C50.4658 48.4126 50.1426 48.7308 49.7485 48.7308Z" fill="#2B2B2B"/>
<path d="M43.4341 46.9982H39.1707C38.7716 46.9982 38.4534 46.6749 38.4534 46.2809C38.4534 45.8869 38.7767 45.5636 39.1707 45.5636H43.4341C43.8332 45.5636 44.1514 45.8869 44.1514 46.2809C44.1514 46.6749 43.8281 46.9982 43.4341 46.9982Z" fill="#2B2B2B"/>
<path d="M24.9711 50.3119C24.5721 50.3119 24.2538 49.9886 24.2538 49.5946V46.8769C24.0619 46.7456 23.9406 46.5284 23.9406 46.2809V21.1145H22.8495V46.2758C22.8495 46.589 22.6525 46.8517 22.3747 46.9527V49.5896C22.3747 49.9886 22.0514 50.3069 21.6574 50.3069C21.2634 50.3069 20.9401 49.9836 20.9401 49.5896V46.2758C20.9401 45.9677 21.1371 45.6999 21.4149 45.5989V20.3972C21.4149 19.9981 21.7382 19.6799 22.1322 19.6799H24.6579C25.057 19.6799 25.3752 20.0032 25.3752 20.3972V45.6848C25.5672 45.8161 25.6884 46.0333 25.6884 46.2809V49.5946C25.6884 49.9937 25.3651 50.3119 24.9711 50.3119Z" fill="#2B2B2B"/>
<path d="M25.7591 20.9579H21.0259C20.6268 20.9579 20.3086 20.6346 20.3086 20.2406C20.3086 19.8466 20.6319 19.5233 21.0259 19.5233H25.7591C26.1582 19.5233 26.4764 19.8466 26.4764 20.2406C26.4764 20.6346 26.1531 20.9579 25.7591 20.9579Z" fill="#2B2B2B"/>
<path d="M24.8902 19.8668C24.5315 19.8668 24.2183 19.594 24.1779 19.2303C24.1779 19.2 24.0213 18.0331 23.2838 17.5785C22.6776 18.0079 22.5766 19.1849 22.5766 19.195C22.5513 19.589 22.2078 19.887 21.8138 19.8668C21.4198 19.8415 21.1167 19.498 21.142 19.104C21.147 19.003 21.3137 16.6793 23.0514 16.1035C23.203 16.053 23.3596 16.053 23.5111 16.1035C25.3246 16.7248 25.5974 18.9727 25.6075 19.0687C25.6529 19.4627 25.365 19.8163 24.971 19.8618C24.9457 19.8618 24.9154 19.8618 24.8902 19.8618V19.8668Z" fill="#2B2B2B"/>
<path d="M23.39 17.3259C22.991 17.3259 22.6727 17.0026 22.6727 16.6086V15.5023C22.6727 15.1033 22.996 14.785 23.39 14.785C23.784 14.785 24.1073 15.1083 24.1073 15.5023V16.6086C24.1073 17.0077 23.784 17.3259 23.39 17.3259Z" fill="#2B2B2B"/>
<path d="M25.4458 33.4249H21.344C20.9449 33.4249 20.6267 33.1016 20.6267 32.7076C20.6267 32.3136 20.95 31.9903 21.344 31.9903H25.4458C25.8449 31.9903 26.1631 32.3136 26.1631 32.7076C26.1631 33.1016 25.8398 33.4249 25.4458 33.4249Z" fill="#2B2B2B"/>
<path d="M9.95293 33.0006C9.55891 33.0006 9.24067 32.6824 9.23562 32.2883L9.18005 26.8732C9.18005 26.6812 9.25078 26.4994 9.38717 26.363C9.52355 26.2266 9.7054 26.1508 9.89736 26.1508H20.2377C20.6368 26.1508 20.955 26.4741 20.955 26.8681C20.955 27.2621 20.6317 27.5854 20.2377 27.5854H10.6248L10.6753 32.2782C10.6753 32.6773 10.3621 33.0006 9.96303 33.0056H9.95797L9.95293 33.0006Z" fill="#2B2B2B"/>
<path d="M8.71535 50.3119C8.31629 50.3119 7.99805 49.9886 7.99805 49.5946V48.0186C7.99805 47.6195 8.32134 47.3013 8.71535 47.3013H9.10432V34.6575L8.23547 33.0562C8.11423 32.8339 8.11928 32.5662 8.25062 32.3439C8.38196 32.1267 8.61433 31.9903 8.8669 31.9903H19.1365C19.5356 31.9903 19.8538 32.3136 19.8538 32.7076C19.8538 33.1016 19.5305 33.4249 19.1365 33.4249H10.0742L10.4581 34.1271C10.5137 34.2331 10.544 34.3493 10.544 34.4706V48.0135C10.544 48.4126 10.2207 48.7308 9.82667 48.7308H9.43771V49.5896C9.43771 49.9886 9.11442 50.3069 8.7204 50.3069L8.71535 50.3119Z" fill="#2B2B2B"/>
<path d="M21.3391 35.6324C21.1471 35.6324 20.9652 35.5566 20.8289 35.4202C20.6925 35.2889 20.6167 35.102 20.6167 34.91C20.6167 34.7181 20.6925 34.5362 20.8289 34.3998C20.9652 34.2635 21.1471 34.1877 21.3391 34.1877C21.531 34.1877 21.7129 34.2635 21.8493 34.3998C21.9806 34.5362 22.0614 34.7181 22.0614 34.91C22.0614 35.102 21.9856 35.2838 21.8493 35.4202C21.7129 35.5566 21.531 35.6324 21.3391 35.6324Z" fill="#2B2B2B"/>
<path d="M19.1314 35.6324H11.5542C11.1552 35.6324 10.8369 35.3091 10.8369 34.9151C10.8369 34.5211 11.1602 34.1978 11.5542 34.1978H19.1314C19.5305 34.1978 19.8487 34.5211 19.8487 34.9151C19.8487 35.3091 19.5254 35.6324 19.1314 35.6324Z" fill="#2B2B2B"/>
<path d="M10.4481 35.6324C10.2612 35.6324 10.0743 35.5566 9.93787 35.4202C9.80653 35.2889 9.72571 35.102 9.72571 34.91C9.72571 34.7181 9.80148 34.5362 9.93787 34.3998C10.0743 34.2685 10.2561 34.1877 10.4481 34.1877C10.64 34.1877 10.8219 34.2635 10.9583 34.3998C11.0947 34.5362 11.1704 34.7181 11.1704 34.91C11.1704 35.102 11.0947 35.2838 10.9583 35.4202C10.8269 35.5566 10.64 35.6324 10.4481 35.6324Z" fill="#2B2B2B"/>
<path d="M18.5002 48.4176C18.1011 48.4176 17.7829 48.0943 17.7829 47.7003V40.2393C17.7829 39.1482 16.3634 38.3905 15.9846 38.2996C15.6259 38.3955 14.1661 39.1027 14.1661 40.2393V47.7003C14.1661 48.0994 13.8428 48.4176 13.4488 48.4176C13.0547 48.4176 12.7314 48.0943 12.7314 47.7003V40.2393C12.7314 38.0975 15.1915 36.8599 15.9745 36.8599C16.7575 36.8599 19.2175 38.0975 19.2175 40.2393V47.7003C19.2175 48.0994 18.8942 48.4176 18.5002 48.4176Z" fill="#2B2B2B"/>
<path d="M19.6063 48.7308H8.71535C8.31629 48.7308 7.99805 48.4075 7.99805 48.0135C7.99805 47.6195 8.32134 47.2962 8.71535 47.2962H19.6063C20.0054 47.2962 20.3236 47.6195 20.3236 48.0135C20.3236 48.4075 20.0003 48.7308 19.6063 48.7308Z" fill="#2B2B2B"/>
<path d="M16.9189 48.7308C16.5199 48.7308 16.2016 48.4075 16.2016 48.0135V45.3362C16.2016 45.1999 16.1056 45.0938 15.9743 45.0938C15.843 45.0938 15.747 45.1999 15.747 45.3362V48.0135C15.747 48.4126 15.4237 48.7308 15.0297 48.7308C14.6357 48.7308 14.3124 48.4075 14.3124 48.0135V45.3362C14.3124 44.4118 15.06 43.6592 15.9794 43.6592C16.8987 43.6592 17.6463 44.4118 17.6463 45.3362V48.0135C17.6463 48.4126 17.323 48.7308 16.929 48.7308H16.9189Z" fill="#2B2B2B"/>
<path d="M25.6024 46.9982H21.344C20.9449 46.9982 20.6267 46.6749 20.6267 46.2809C20.6267 45.8869 20.95 45.5636 21.344 45.5636H25.6024C26.0015 45.5636 26.3197 45.8869 26.3197 46.2809C26.3197 46.6749 25.9964 46.9982 25.6024 46.9982Z" fill="#2B2B2B"/>
</svg>
