<svg width="65" height="65" viewBox="0 0 65 65" fill="none" xmlns="http://www.w3.org/2000/svg">
<rect x="24.3723" y="23.9954" width="16.287" height="5.7785" stroke="#2B2B2B" stroke-width="1.5" stroke-linejoin="round"/>
<rect x="6.54858" y="28.0928" width="19.0528" height="25.7111" stroke="#2B2B2B" stroke-width="1.5" stroke-linejoin="round"/>
<path d="M9.75439 35.7958C9.75439 36.21 10.0902 36.5458 10.5044 36.5458C10.9186 36.5458 11.2544 36.21 11.2544 35.7958H9.75439ZM9.75439 28.2082V35.7958H11.2544V28.2082H9.75439Z" fill="#2B2B2B"/>
<rect x="39.1226" y="28.0928" width="19.0528" height="25.7111" stroke="#2B2B2B" stroke-width="1.5" stroke-linejoin="round"/>
<rect x="25.7549" y="29.7739" width="13.3627" height="24.03" stroke="#2B2B2B" stroke-width="1.5" stroke-linejoin="round"/>
<rect x="22.2585" y="15.3557" width="5.17912" height="8.63973" stroke="#2B2B2B" stroke-width="1.5"/>
<rect x="37.1655" y="15.3557" width="5.17912" height="8.63973" stroke="#2B2B2B" stroke-width="1.5"/>
<rect x="27.6736" y="15.3557" width="9.68321" height="8.63973" stroke="#2B2B2B" stroke-width="1.5"/>
<rect x="9.92896" y="23.9954" width="14.4435" height="4.09741" stroke="#2B2B2B" stroke-width="1.5" stroke-linejoin="round"/>
<rect x="40.6594" y="23.9954" width="14.4435" height="4.09741" stroke="#2B2B2B" stroke-width="1.5" stroke-linejoin="round"/>
<rect x="20.5496" y="11.6063" width="23.0176" height="3.74939" stroke="#2B2B2B" stroke-width="1.5" stroke-linejoin="round"/>
<path d="M29.2817 37.815V53.8039H35.7492V37.815L32.869 34.9348C32.6738 34.7395 32.3572 34.7395 32.1619 34.9348L29.2817 37.815Z" stroke="#2B2B2B" stroke-width="1.5"/>
<path d="M4.73584 33.1427C4.32163 33.1427 3.98584 33.4785 3.98584 33.8927C3.98584 34.3069 4.32163 34.6427 4.73584 34.6427V33.1427ZM59.9958 34.6427C60.41 34.6427 60.7458 34.3069 60.7458 33.8927C60.7458 33.4785 60.41 33.1427 59.9958 33.1427V34.6427ZM4.73584 34.6427H25.0939V33.1427H4.73584V34.6427ZM39.3852 34.6427H42.502V33.1427H39.3852V34.6427ZM42.502 34.6427H59.9958V33.1427H42.502V34.6427ZM41.752 28.4781V33.8927H43.252V28.4781H41.752Z" fill="#2B2B2B"/>
<path d="M46.4421 28.4135V35.7587M50.3176 28.4135V35.7587M54.2189 28.4135V35.7587" stroke="#2B2B2B" stroke-width="1.5" stroke-linecap="round" stroke-linejoin="round"/>
<path d="M14.4819 28.4835V35.7587M18.3573 28.4835V35.7587M22.2587 28.4835V35.7587" stroke="#2B2B2B" stroke-width="1.5" stroke-linecap="round" stroke-linejoin="round"/>
<path d="M10.9524 40.2413V45.7928" stroke="#2B2B2B" stroke-width="1.5" stroke-linecap="round"/>
<path d="M43.8503 40.2413V45.7928" stroke="#2B2B2B" stroke-width="1.5" stroke-linecap="round"/>
<path d="M15.7512 40.2413V45.7928" stroke="#2B2B2B" stroke-width="1.5" stroke-linecap="round"/>
<path d="M48.6487 40.2413V45.7928" stroke="#2B2B2B" stroke-width="1.5" stroke-linecap="round"/>
<path d="M20.5493 40.2413V45.7928" stroke="#2B2B2B" stroke-width="1.5" stroke-linecap="round"/>
<path d="M53.4475 40.2413V45.7928" stroke="#2B2B2B" stroke-width="1.5" stroke-linecap="round"/>
</svg>
